<svg width="15" height="21" viewBox="0 0 15 21" fill="none" xmlns="http://www.w3.org/2000/svg">
<g clip-path="url(#clip0_163_1078)">
<mask id="mask0_163_1078" style="mask-type:luminance" maskUnits="userSpaceOnUse" x="1" y="1" width="14" height="20">
<path d="M14.0942 1.05103H1.16492V20.445H14.0942V1.05103Z" fill="white"/>
</mask>
<g mask="url(#mask0_163_1078)">
<path d="M7.62952 10.7479C7.62952 9.89065 7.97006 9.06853 8.57624 8.46235C9.18243 7.85617 10.0046 7.51562 10.8619 7.51562C11.7191 7.51562 12.5413 7.85617 13.1475 8.46235C13.7536 9.06853 14.0942 9.89065 14.0942 10.7479C14.0942 11.6052 13.7536 12.4273 13.1475 13.0335C12.5413 13.6397 11.7191 13.9802 10.8619 13.9802C10.0046 13.9802 9.18243 13.6397 8.57624 13.0335C7.97006 12.4273 7.62952 11.6052 7.62952 10.7479Z" fill="#1ABCFE"/>
<path d="M1.16492 17.2125C1.16492 16.3553 1.50546 15.5331 2.11164 14.927C2.71782 14.3208 3.53998 13.9802 4.39724 13.9802H7.62958V17.2125C7.62958 18.0698 7.28904 18.892 6.68286 19.4982C6.07666 20.1043 5.2545 20.4449 4.39724 20.4449C3.53998 20.4449 2.71782 20.1043 2.11164 19.4982C1.50546 18.892 1.16492 18.0698 1.16492 17.2125Z" fill="#0ACF83"/>
<path d="M7.62952 1.05103V7.51565H10.8619C11.7191 7.51565 12.5413 7.17511 13.1475 6.56894C13.7536 5.96277 14.0942 5.14061 14.0942 4.28335C14.0942 3.42608 13.7536 2.60393 13.1475 1.99775C12.5413 1.39158 11.7191 1.05103 10.8619 1.05103H7.62952Z" fill="#FF7262"/>
<path d="M1.16492 4.28335C1.16492 5.14061 1.50546 5.96277 2.11164 6.56894C2.71782 7.17511 3.53997 7.51565 4.39724 7.51565H7.62954V1.05103H4.39724C3.53997 1.05103 2.71782 1.39158 2.11164 1.99775C1.50546 2.60393 1.16492 3.42608 1.16492 4.28335Z" fill="#F24E1E"/>
<path d="M1.16492 10.7479C1.16492 11.6052 1.50546 12.4273 2.11164 13.0335C2.71782 13.6397 3.53998 13.9802 4.39724 13.9802H7.62958V7.51562H4.39724C3.53998 7.51562 2.71782 7.85617 2.11164 8.46235C1.50546 9.06853 1.16492 9.89065 1.16492 10.7479Z" fill="#A259FF"/>
</g>
</g>
<defs>
<clipPath id="clip0_163_1078">
<rect width="13.9394" height="20" fill="white" transform="translate(0.608154 0.643555)"/>
</clipPath>
</defs>
</svg>
