<svg width="21" height="19" viewBox="0 0 21 19" fill="none" xmlns="http://www.w3.org/2000/svg">
<path d="M11.8907 9.78673C11.8907 10.7712 11.0926 11.5693 10.1081 11.5693C9.1236 11.5693 8.3255 10.7712 8.3255 9.78673C8.3255 8.80222 9.1236 8.00412 10.1081 8.00412C11.0926 8.00412 11.8907 8.80222 11.8907 9.78673Z" fill="#61DAFB"/>
<path fill-rule="evenodd" clip-rule="evenodd" d="M10.1082 3.07869C9.81591 2.79456 9.52474 2.53453 9.23705 2.3007C8.49402 1.69681 7.75572 1.25262 7.06635 1.0296C6.37704 0.806607 5.68852 0.791492 5.10815 1.12657C4.52779 1.46164 4.19662 2.06547 4.04509 2.77393C3.89354 3.48245 3.90907 4.34393 4.06054 5.28936C4.11919 5.65542 4.19879 6.0376 4.29874 6.43275C3.90656 6.54377 3.53578 6.66592 3.18944 6.79816C2.29493 7.1397 1.5411 7.55699 1.00328 8.04249C0.465504 8.52796 0.108154 9.11667 0.108154 9.78682C0.108154 10.457 0.465504 11.0457 1.00328 11.5311C1.5411 12.0166 2.29493 12.4339 3.18944 12.7755C3.53578 12.9077 3.90656 13.0299 4.29874 13.1409C4.19879 13.536 4.11919 13.9182 4.06054 14.2843C3.90907 15.2297 3.89354 16.0912 4.04509 16.7997C4.19662 17.5082 4.52779 18.112 5.10815 18.4471C5.68852 18.7821 6.37704 18.767 7.06635 18.544C7.75572 18.321 8.49402 17.8768 9.23705 17.2729C9.52474 17.0391 9.81592 16.7791 10.1082 16.4949C10.4004 16.7791 10.6916 17.0391 10.9793 17.2729C11.7223 17.8768 12.4606 18.321 13.15 18.544C13.8393 18.767 14.5278 18.7821 15.1082 18.4471C15.6885 18.112 16.0197 17.5082 16.1712 16.7997C16.3228 16.0912 16.3072 15.2297 16.1558 14.2843C16.0971 13.9182 16.0175 13.536 15.9176 13.1409C16.3098 13.0299 16.6805 12.9077 17.0269 12.7755C17.9214 12.4339 18.6752 12.0166 19.213 11.5311C19.7508 11.0457 20.1082 10.457 20.1082 9.78682C20.1082 9.11667 19.7508 8.52796 19.213 8.04249C18.6752 7.55699 17.9214 7.1397 17.0269 6.79816C16.6805 6.66592 16.3098 6.54377 15.9176 6.43275C16.0175 6.0376 16.0971 5.65542 16.1558 5.28936C16.3072 4.34393 16.3228 3.48245 16.1712 2.77393C16.0197 2.06547 15.6885 1.46164 15.1082 1.12657C14.5278 0.791492 13.8393 0.806607 13.15 1.0296C12.4606 1.25262 11.7223 1.69681 10.9793 2.3007C10.6916 2.53452 10.4004 2.79456 10.1082 3.07869ZM14.6734 1.87963C14.9664 2.04882 15.1996 2.38897 15.3209 2.95581C15.4421 3.52259 15.4388 4.26772 15.2972 5.1518C15.2427 5.49147 15.1685 5.84818 15.0747 6.21886C14.2521 6.03265 13.3554 5.89183 12.4075 5.80419C11.8577 5.02712 11.2874 4.32102 10.7148 3.70166C10.989 3.43515 11.2607 3.19247 11.5277 2.97551C12.2225 2.4108 12.8662 2.03535 13.4176 1.85695C13.9691 1.67853 14.3803 1.71044 14.6734 1.87963ZM9.50149 3.70166C9.22735 3.43515 8.95556 3.19247 8.68861 2.97551C7.99379 2.4108 7.35015 2.03535 6.79869 1.85695C6.24717 1.67853 5.83598 1.71044 5.54294 1.87963C5.2499 2.04882 5.01666 2.38897 4.89542 2.95581C4.77419 3.52259 4.77751 4.26772 4.91916 5.1518C4.97358 5.49147 5.04785 5.84818 5.14158 6.21886C5.96426 6.03265 6.8609 5.89183 7.80878 5.80419C8.35862 5.02712 8.9289 4.32102 9.50149 3.70166ZM14.8369 7.05666C14.2753 6.93119 13.6744 6.82712 13.0424 6.74781C13.2486 7.0702 13.4507 7.40235 13.6476 7.74334C13.8444 8.08434 14.031 8.42542 14.2071 8.76522C14.4545 8.17818 14.6648 7.60579 14.8369 7.05666ZM14.7069 9.78682C15.1049 8.92211 15.4313 8.07518 15.6814 7.26963C16.0493 7.37378 16.3953 7.48782 16.7167 7.61052C17.5532 7.9299 18.2001 8.29959 18.6303 8.68796C19.0606 9.07638 19.2386 9.44845 19.2386 9.78682C19.2386 10.1252 19.0606 10.4973 18.6303 10.8857C18.2001 11.2741 17.5532 11.6437 16.7167 11.9631C16.3953 12.0858 16.0493 12.1999 15.6814 12.304C15.4313 11.4985 15.1049 10.6515 14.7069 9.78682ZM13.7458 9.78682C13.4902 9.25618 13.2062 8.71797 12.8945 8.17812C12.5828 7.63828 12.2587 7.12322 11.927 6.63656C11.3396 6.59258 10.7315 6.56943 10.1082 6.56943C9.48479 6.56943 8.87669 6.59258 8.28935 6.63656C7.95759 7.12322 7.63349 7.63828 7.32181 8.17812C7.01013 8.71797 6.72613 9.25618 6.47055 9.78682C6.72613 10.3175 7.01013 10.8557 7.32181 11.3955C7.63349 11.9354 7.95759 12.4504 8.28935 12.9371C8.87669 12.9811 9.48479 13.0042 10.1082 13.0042C10.7315 13.0042 11.3396 12.9811 11.927 12.9371C12.2587 12.4504 12.5828 11.9354 12.8945 11.3955C13.2062 10.8557 13.4902 10.3175 13.7458 9.78682ZM13.0424 12.8258C13.2486 12.5034 13.4507 12.1713 13.6476 11.8303C13.8444 11.4893 14.031 11.1482 14.2071 10.8084C14.4545 11.3955 14.6648 11.9678 14.8369 12.517C14.2753 12.6424 13.6744 12.7465 13.0424 12.8258ZM11.2729 13.8474C10.8906 13.8648 10.5019 13.8738 10.1082 13.8738C9.71441 13.8738 9.32571 13.8648 8.9434 13.8474C9.32811 14.3552 9.71867 14.8235 10.1082 15.2471C10.4976 14.8235 10.8882 14.3552 11.2729 13.8474ZM10.7148 15.872C11.2874 15.2526 11.8577 14.5465 12.4075 13.7694C13.3554 13.6818 14.2521 13.541 15.0747 13.3548C15.1685 13.7255 15.2427 14.0822 15.2972 14.4218C15.4388 15.3059 15.4421 16.0511 15.3209 16.6178C15.1996 17.1847 14.9664 17.5248 14.6734 17.694C14.3803 17.8632 13.9691 17.8951 13.4176 17.7167C12.8662 17.5383 12.2225 17.1628 11.5277 16.5981C11.2607 16.3812 10.989 16.1385 10.7148 15.872ZM9.50149 15.872C8.9289 15.2526 8.35862 14.5465 7.80878 13.7694C6.8609 13.6818 5.96426 13.541 5.14159 13.3548C5.04785 13.7255 4.97358 14.0822 4.91916 14.4218C4.77751 15.3059 4.77419 16.0511 4.89542 16.6178C5.01666 17.1847 5.2499 17.5248 5.54294 17.694C5.83598 17.8632 6.24717 17.8951 6.79869 17.7167C7.35015 17.5383 7.99379 17.1628 8.68861 16.5981C8.95556 16.3812 9.22735 16.1385 9.50149 15.872ZM5.37938 12.517C5.94102 12.6424 6.54187 12.7465 7.17394 12.8258C6.9677 12.5034 6.76562 12.1713 6.56875 11.8303C6.37187 11.4893 6.18526 11.1482 6.00919 10.8084C5.76183 11.3955 5.55154 11.9678 5.37938 12.517ZM6.00919 8.76522C6.18526 8.42542 6.37187 8.08434 6.56875 7.74334C6.76562 7.40235 6.9677 7.0702 7.17394 6.74781C6.54187 6.82712 5.94102 6.93119 5.37938 7.05666C5.55154 7.60579 5.76183 8.17818 6.00919 8.76522ZM5.50941 9.78682C5.11137 10.6515 4.785 11.4985 4.53492 12.304C4.16704 12.1999 3.82099 12.0858 3.49961 11.9631C2.66315 11.6437 2.01619 11.2741 1.58596 10.8857C1.15568 10.4973 0.977719 10.1252 0.977719 9.78682C0.977719 9.44845 1.15568 9.07638 1.58596 8.68796C2.01619 8.29959 2.66315 7.9299 3.49961 7.61052C3.82099 7.48782 4.16704 7.37378 4.53492 7.26963C4.785 8.07518 5.11137 8.92211 5.50941 9.78682ZM8.9434 5.72621C9.32571 5.7088 9.71441 5.69986 10.1082 5.69986C10.5019 5.69986 10.8906 5.7088 11.2729 5.72621C10.8882 5.21848 10.4976 4.75016 10.1082 4.32651C9.71867 4.75016 9.32811 5.21848 8.9434 5.72621Z" fill="#61DAFB"/>
</svg>
