<svg width="306" height="122" viewBox="0 0 306 122" fill="none" xmlns="http://www.w3.org/2000/svg">
<path fill-rule="evenodd" clip-rule="evenodd" d="M2.03387 20.9362C0.777344 23.4022 0.777344 26.6305 0.777344 33.087L0.777344 88.4235C0.777344 94.88 0.777344 98.1083 2.03387 100.574C3.13914 102.744 4.90276 104.507 7.07198 105.612C9.53804 106.869 12.7663 106.869 19.2228 106.869H74.5593C81.0158 106.869 84.2441 106.869 86.7102 105.612C88.8794 104.507 90.643 102.744 91.7483 100.574C93.0048 98.1083 93.0048 94.88 93.0048 88.4235V33.087C93.0048 26.6305 93.0048 23.4022 91.7483 20.9362C90.643 18.767 88.8794 17.0033 86.7102 15.8981C84.2441 14.6415 81.0158 14.6415 74.5593 14.6415L19.2228 14.6415C12.7663 14.6415 9.53804 14.6415 7.07198 15.8981C4.90276 17.0033 3.13914 18.767 2.03387 20.9362ZM49.7732 0.230957L49.7732 121.28H44.009L44.009 0.230957L49.7732 0.230957ZM35.3626 57.8732H20.7474L28.0551 50.5656L23.9791 46.4897L13.7893 56.6794C11.5382 58.9305 11.5382 62.5802 13.7893 64.8312L23.9791 75.021L28.0551 70.9451L20.7473 63.6374H35.3626L35.3626 57.8732ZM58.4195 63.6374L73.0353 63.6374L65.7275 70.9451L69.8034 75.021L79.9933 64.8312C82.2443 62.5802 82.2443 58.9305 79.9933 56.6794L69.8034 46.4897L65.7275 50.5656L73.0351 57.8732L58.4195 57.8732L58.4195 63.6374Z" fill="url(#paint0_linear_1466_5443)"/>
<path d="M127.779 24.1554H137.621C143.188 24.1554 147.007 27.6514 147.007 32.8194C147.007 36.5814 145.012 39.4314 141.725 40.6474L147.71 50.7554H140.889L135.588 41.4834H134.011V50.7554H127.779V24.1554ZM136.975 29.1714H134.011V36.7524H136.975C139.369 36.7524 140.775 35.2134 140.775 32.9714C140.775 30.6914 139.369 29.1714 136.975 29.1714ZM155.7 42.6044C156.137 45.0934 158.075 46.6134 161.001 46.6134C163.604 46.6134 165.542 45.8344 167.366 44.2194L169.95 47.1074C167.803 49.5014 164.972 51.2114 160.925 51.2114C154.123 51.2114 149.582 46.6894 149.582 40.9134C149.582 35.1374 154.237 30.6154 160.374 30.6154C166.397 30.6154 170.786 35.0614 170.786 40.5904C170.786 41.2554 170.672 42.0344 170.501 42.6044H155.7ZM160.298 35.2134C158.075 35.2134 156.384 36.5434 155.795 38.7474H164.573C164.098 36.5814 162.559 35.2134 160.298 35.2134ZM173.453 47.0504L175.676 44.3904C177.234 45.8344 178.906 46.5754 180.787 46.5754C182.307 46.5754 183.181 45.9674 183.181 44.9984C183.181 44.0294 182.421 43.4214 180.16 42.9464C176.018 42.0724 173.795 39.8114 173.795 36.5244C173.795 33.1044 176.778 30.6154 181.091 30.6154C185.765 30.6154 188.368 33.2944 188.9 37.0374H183.618C183.39 35.9164 182.611 35.2514 181.433 35.2514C180.35 35.2514 179.552 35.7644 179.552 36.6004C179.552 37.4744 180.293 38.1584 182.44 38.6144C186.943 39.5644 189.071 41.7494 189.071 45.0364C189.071 48.5704 185.974 51.2114 181.148 51.2114C178.222 51.2114 175.6 49.7864 173.453 47.0504ZM192.664 50.7554V31.0714H198.763V50.7554H192.664ZM192.227 25.9224C192.227 24.0414 193.747 22.5974 195.723 22.5974C197.699 22.5974 199.219 24.0414 199.219 25.9224C199.219 27.8224 197.699 29.2474 195.723 29.2474C193.747 29.2474 192.227 27.8224 192.227 25.9224ZM202.851 50.7554V46.0814L211.439 36.3154H203.345V31.0714H218.925V35.7454L210.318 45.5114H219.305V50.7554H202.851ZM228.112 42.6044C228.549 45.0934 230.487 46.6134 233.413 46.6134C236.016 46.6134 237.954 45.8344 239.778 44.2194L242.362 47.1074C240.215 49.5014 237.384 51.2114 233.337 51.2114C226.535 51.2114 221.994 46.6894 221.994 40.9134C221.994 35.1374 226.649 30.6154 232.786 30.6154C238.809 30.6154 243.198 35.0614 243.198 40.5904C243.198 41.2554 243.084 42.0344 242.913 42.6044H228.112ZM232.71 35.2134C230.487 35.2134 228.796 36.5434 228.207 38.7474H236.985C236.51 36.5814 234.971 35.2134 232.71 35.2134ZM139.312 97.7554H127.798V71.1554H138.096C143.055 71.1554 146.133 74.0434 146.133 78.3564C146.133 80.9214 144.803 82.8974 142.846 83.7334C145.487 84.4554 147.482 86.7734 147.482 89.9844C147.482 94.5064 144.176 97.7554 139.312 97.7554ZM140.281 78.9644C140.281 77.1974 139.179 76.2094 137.621 76.2094H133.897V81.7194H137.621C139.179 81.7194 140.281 80.7314 140.281 78.9644ZM141.25 89.6424C141.25 87.7804 140.072 86.5834 138.4 86.5834H133.897V92.7014H138.4C140.072 92.7014 141.25 91.4854 141.25 89.6424ZM150.176 87.9134C150.176 82.1374 154.907 77.6154 161.196 77.6154C167.485 77.6154 172.216 82.1374 172.216 87.9134C172.216 93.6894 167.485 98.2114 161.196 98.2114C154.907 98.2114 150.176 93.6894 150.176 87.9134ZM156.237 87.9134C156.237 90.7254 158.365 92.8534 161.196 92.8534C164.027 92.8534 166.155 90.7254 166.155 87.9134C166.155 85.1204 164.027 82.9734 161.196 82.9734C158.365 82.9734 156.237 85.1204 156.237 87.9134ZM182.918 98.2114C178.605 98.2114 175.47 95.0954 175.47 90.4404V78.0714H181.569V89.4714C181.569 91.3144 182.975 92.8724 184.742 92.8724C186.756 92.8724 188.371 91.3714 188.371 88.5784V78.0714H194.47V97.7554H188.371V95.7034C187.022 97.3184 185.141 98.2114 182.918 98.2114ZM210.951 77.6154C215.264 77.6154 218.399 80.7504 218.399 85.4054V97.7554H212.3V86.3744C212.3 84.6074 210.894 82.9734 209.127 82.9734C207.151 82.9734 205.498 84.4174 205.498 87.1154V97.7554H199.399V78.0714H205.498V80.1424C206.828 78.5274 208.709 77.6154 210.951 77.6154ZM221.694 87.9134C221.694 82.1374 225.532 77.6154 230.947 77.6154C233.531 77.6154 235.659 78.6034 237.198 80.2374V70.0154H243.202V97.7554H237.198V95.5894C235.659 97.2234 233.531 98.2114 230.947 98.2114C225.532 98.2114 221.694 93.6894 221.694 87.9134ZM227.755 87.9134C227.755 90.7254 229.807 92.8534 232.448 92.8534C235.108 92.8534 237.198 90.7254 237.198 87.9134C237.198 85.1204 235.108 82.9734 232.448 82.9734C229.807 82.9734 227.755 85.1204 227.755 87.9134ZM248.111 97.7554V78.0714H254.21V97.7554H248.111ZM247.674 72.9224C247.674 71.0414 249.194 69.5974 251.17 69.5974C253.146 69.5974 254.666 71.0414 254.666 72.9224C254.666 74.8224 253.146 76.2474 251.17 76.2474C249.194 76.2474 247.674 74.8224 247.674 72.9224ZM270.705 77.6154C275.018 77.6154 278.153 80.7504 278.153 85.4054V97.7554H272.054V86.3744C272.054 84.6074 270.648 82.9734 268.881 82.9734C266.905 82.9734 265.252 84.4174 265.252 87.1154V97.7554H259.153V78.0714H265.252V80.1424C266.582 78.5274 268.463 77.6154 270.705 77.6154ZM281.448 87.9134C281.448 82.1374 285.286 77.6154 290.701 77.6154C293.285 77.6154 295.413 78.6034 296.952 80.2374V78.0714H302.956V96.5014C302.956 102.714 298.966 106.571 292.392 106.571C288.763 106.571 285.666 105.184 283.006 102.334L285.495 99.1614C287.338 100.738 289.276 101.555 291.708 101.555C294.843 101.555 296.952 99.8454 296.952 96.8814V95.4184C295.413 97.0334 293.285 98.0214 290.701 98.0214C285.286 98.0214 281.448 93.4994 281.448 87.9134ZM287.509 87.9134C287.509 90.7254 289.561 92.8534 292.202 92.8534C294.862 92.8534 296.952 90.7254 296.952 87.9134C296.952 85.1204 294.862 82.9734 292.202 82.9734C289.561 82.9734 287.509 85.1204 287.509 87.9134Z" fill="#776AFF"/>
<defs>
<linearGradient id="paint0_linear_1466_5443" x1="11.3145" y1="106.869" x2="121.484" y2="45.9466" gradientUnits="userSpaceOnUse">
<stop stop-color="#806DFD"/>
<stop offset="1" stop-color="#624BFB"/>
</linearGradient>
</defs>
</svg>
