<svg width="360" height="360" viewBox="0 0 360 360" fill="none" xmlns="http://www.w3.org/2000/svg">
<g clip-path="url(#clip0_1330_5511)">
<path d="M360 0H0V360H360V0Z" fill="url(#paint0_linear_1330_5511)"/>
<path fill-rule="evenodd" clip-rule="evenodd" d="M-21 -76.8389C17.7478 98.232 51.1171 263.08 163.439 257.641C275.76 252.201 309.325 140.052 476.064 216.159V-76.8389H-21Z" fill="url(#paint1_linear_1330_5511)"/>
<path fill-rule="evenodd" clip-rule="evenodd" d="M-21 -76.8389C17.7478 98.232 51.1171 263.08 163.439 257.641C275.76 252.201 309.325 140.052 476.064 216.159V-76.8389H-21Z" fill="url(#paint2_linear_1330_5511)"/>
<path fill-rule="evenodd" clip-rule="evenodd" d="M-21 -76.8389C17.7478 98.232 51.1171 263.08 163.439 257.641C275.76 252.201 309.325 140.052 476.064 216.159V-76.8389H-21Z" fill="url(#paint3_radial_1330_5511)"/>
<path fill-rule="evenodd" clip-rule="evenodd" d="M71 -79.8389C99.6905 49.7657 124.399 171.802 207.566 167.776C290.734 163.749 315.586 80.7248 439.047 137.067V-79.8389H71Z" fill="url(#paint4_linear_1330_5511)"/>
<path fill-rule="evenodd" clip-rule="evenodd" d="M71 -79.8389C99.6905 49.7657 124.399 171.802 207.566 167.776C290.734 163.749 315.586 80.7248 439.047 137.067V-79.8389H71Z" fill="url(#paint5_linear_1330_5511)"/>
<path fill-rule="evenodd" clip-rule="evenodd" d="M71 -79.8389C99.6905 49.7657 124.399 171.802 207.566 167.776C290.734 163.749 315.586 80.7248 439.047 137.067V-79.8389H71Z" fill="url(#paint6_radial_1330_5511)"/>
<path fill-rule="evenodd" clip-rule="evenodd" d="M149.315 -130C171.768 -28.6157 191.105 66.8484 256.193 63.6986C321.28 60.5486 340.73 -4.39775 437.352 39.6766V-130H149.315Z" fill="url(#paint7_linear_1330_5511)"/>
<path fill-rule="evenodd" clip-rule="evenodd" d="M149.315 -130C171.768 -28.6157 191.105 66.8484 256.193 63.6986C321.28 60.5486 340.73 -4.39775 437.352 39.6766V-130H149.315Z" fill="url(#paint8_linear_1330_5511)"/>
<path fill-rule="evenodd" clip-rule="evenodd" d="M149.315 -130C171.768 -28.6157 191.105 66.8484 256.193 63.6986C321.28 60.5486 340.73 -4.39775 437.352 39.6766V-130H149.315Z" fill="url(#paint9_radial_1330_5511)"/>
</g>
<defs>
<linearGradient id="paint0_linear_1330_5511" x1="360" y1="16.9302" x2="-384.878" y2="522.969" gradientUnits="userSpaceOnUse">
<stop stop-color="#2203F6"/>
<stop offset="1" stop-color="#9D8FFF"/>
</linearGradient>
<linearGradient id="paint1_linear_1330_5511" x1="73.0924" y1="210.633" x2="388.143" y2="-102.63" gradientUnits="userSpaceOnUse">
<stop stop-color="#0147FF"/>
<stop offset="1" stop-color="#2508EF"/>
</linearGradient>
<linearGradient id="paint2_linear_1330_5511" x1="73.0923" y1="210.633" x2="256.291" y2="136.106" gradientUnits="userSpaceOnUse">
<stop stop-color="#485AFA"/>
<stop offset="0.5" stop-color="#2C28F5"/>
<stop offset="1" stop-color="#0D08EF" stop-opacity="0"/>
</linearGradient>
<radialGradient id="paint3_radial_1330_5511" cx="0" cy="0" r="1" gradientUnits="userSpaceOnUse" gradientTransform="translate(51.2518 154.122) rotate(-155.829) scale(528.483 528.709)">
<stop stop-color="#7C08EF" stop-opacity="0"/>
<stop offset="0.56" stop-color="#5228F5"/>
<stop offset="1" stop-color="#4E60FF"/>
</radialGradient>
<linearGradient id="paint4_linear_1330_5511" x1="140.67" y1="132.976" x2="373.902" y2="-98.9774" gradientUnits="userSpaceOnUse">
<stop stop-color="#0147FF"/>
<stop offset="1" stop-color="#2508EF"/>
</linearGradient>
<linearGradient id="paint5_linear_1330_5511" x1="140.67" y1="132.976" x2="276.311" y2="77.7853" gradientUnits="userSpaceOnUse">
<stop stop-color="#485AFA"/>
<stop offset="0.5" stop-color="#2C28F5"/>
<stop offset="1" stop-color="#0D08EF" stop-opacity="0"/>
</linearGradient>
<radialGradient id="paint6_radial_1330_5511" cx="0" cy="0" r="1" gradientUnits="userSpaceOnUse" gradientTransform="translate(124.498 91.1413) rotate(-155.833) scale(391.299 391.415)">
<stop stop-color="#7C08EF" stop-opacity="0"/>
<stop offset="0.56" stop-color="#5228F5"/>
<stop offset="1" stop-color="#4E60FF"/>
</radialGradient>
<linearGradient id="paint7_linear_1330_5511" x1="203.839" y1="36.476" x2="386.287" y2="-145.053" gradientUnits="userSpaceOnUse">
<stop stop-color="#0147FF"/>
<stop offset="1" stop-color="#2508EF"/>
</linearGradient>
<linearGradient id="paint8_linear_1330_5511" x1="203.839" y1="36.476" x2="309.979" y2="-6.73037" gradientUnits="userSpaceOnUse">
<stop stop-color="#485AFA"/>
<stop offset="0.5" stop-color="#2C28F5"/>
<stop offset="1" stop-color="#0D08EF" stop-opacity="0"/>
</linearGradient>
<radialGradient id="paint9_radial_1330_5511" cx="0" cy="0" r="1" gradientUnits="userSpaceOnUse" gradientTransform="translate(191.183 3.75065) rotate(-155.843) scale(306.211 306.211)">
<stop stop-color="#7C08EF" stop-opacity="0"/>
<stop offset="0.56" stop-color="#5228F5"/>
<stop offset="1" stop-color="#4E60FF"/>
</radialGradient>
<clipPath id="clip0_1330_5511">
<rect width="360" height="360" fill="white"/>
</clipPath>
</defs>
</svg>
