<svg width="27" height="39" viewBox="0 0 27 39" fill="none" xmlns="http://www.w3.org/2000/svg">
<path fill-rule="evenodd" clip-rule="evenodd" d="M7.06611 0.172363H19C20.874 0.172363 22.6713 0.916827 23.9965 2.24198C25.3216 3.56713 26.0661 5.36443 26.0661 7.23848C26.0661 9.11253 25.3216 10.9098 23.9965 12.235C23.6266 12.6049 23.2199 12.9296 22.785 13.2054C23.2199 13.4813 23.6266 13.8059 23.9965 14.1759C25.3216 15.501 26.0661 17.2983 26.0661 19.1724C26.0661 21.0464 25.3216 22.8437 23.9965 24.1689C22.6713 25.494 20.874 26.2385 19 26.2385C17.186 26.2385 15.4438 25.5409 14.1322 24.2944V31.1062C14.1322 32.9803 13.3878 34.7776 12.0626 36.1027C10.7375 37.4279 8.94016 38.1724 7.06611 38.1724C5.19206 38.1724 3.39477 37.4279 2.06962 36.1027C0.744463 34.7776 0 32.9803 0 31.1062C0 29.2322 0.744463 27.4349 2.06962 26.1097C2.43954 25.7398 2.84625 25.4152 3.28115 25.1393C2.84625 24.8634 2.43954 24.5388 2.06962 24.1689C0.744463 22.8437 0 21.0464 0 19.1724C0 17.2983 0.744463 15.501 2.06962 14.1759C2.43954 13.8059 2.84625 13.4813 3.28115 13.2054C2.84625 12.9296 2.43954 12.6049 2.06962 12.235C0.744463 10.9098 0 9.11253 0 7.23848C0 5.36443 0.744463 3.56713 2.06962 2.24198C3.39477 0.916827 5.19206 0.172363 7.06611 0.172363ZM7.06611 12.1062H11.9339V2.37071H7.06611C5.7751 2.37071 4.53697 2.88356 3.62408 3.79645C2.7112 4.70933 2.19835 5.94747 2.19835 7.23848C2.19835 8.52949 2.7112 9.76763 3.62408 10.6805C4.53697 11.5934 5.7751 12.1062 7.06611 12.1062ZM7.06611 24.0401H11.9339V14.3046H7.06611C5.7751 14.3046 4.53697 14.8174 3.62408 15.7303C2.7112 16.6432 2.19835 17.8813 2.19835 19.1724C2.19835 20.4634 2.7112 21.7015 3.62408 22.6144C4.53697 23.5273 5.7751 24.0401 7.06611 24.0401ZM7.06611 26.2385C5.7751 26.2385 4.53697 26.7513 3.62408 27.6642C2.7112 28.5771 2.19835 29.8152 2.19835 31.1062C2.19835 32.3973 2.7112 33.6354 3.62408 34.5483C4.53697 35.4612 5.7751 35.974 7.06611 35.974C8.35713 35.974 9.59526 35.4612 10.5081 34.5483C11.421 33.6354 11.9339 32.3973 11.9339 31.1062V26.2385H7.06611ZM14.1322 19.1724C14.1322 20.4634 14.6451 21.7015 15.558 22.6144C16.4708 23.5273 17.709 24.0401 19 24.0401C20.291 24.0401 21.5291 23.5273 22.442 22.6144C23.3549 21.7015 23.8678 20.4634 23.8678 19.1724C23.8678 17.8813 23.3549 16.6432 22.442 15.7303C21.5291 14.8174 20.291 14.3046 19 14.3046C17.709 14.3046 16.4708 14.8174 15.558 15.7303C14.6451 16.6432 14.1322 17.8813 14.1322 19.1724ZM14.1322 12.1062V2.37071H19C20.291 2.37071 21.5291 2.88356 22.442 3.79645C23.3549 4.70933 23.8678 5.94747 23.8678 7.23848C23.8678 8.52949 23.3549 9.76763 22.442 10.6805C21.5291 11.5934 20.291 12.1062 19 12.1062H14.1322Z" fill="white"/>
</svg>
