<svg width="58" height="39" viewBox="0 0 58 39" fill="none" xmlns="http://www.w3.org/2000/svg">
<path d="M32.2762 38.1724H53.3661C54.0391 38.1724 54.6833 37.9359 55.2661 37.6024C55.849 37.2688 56.4498 36.8501 56.7861 36.2723C57.1225 35.6946 57.3564 35.0391 57.3561 34.3722C57.3559 33.7051 57.123 33.0499 56.7861 32.4725L42.5362 7.9624C42.1998 7.38474 41.7888 6.96584 41.2062 6.63231C40.6234 6.29891 39.789 6.06231 39.1162 6.06231C38.4433 6.06231 37.7988 6.29891 37.2162 6.63231C36.6334 6.96584 36.2225 7.38474 35.8861 7.9624L32.2762 14.2324L25.0561 2.07191C24.7195 1.49439 24.3091 0.885804 23.7262 0.552408C23.1433 0.218878 22.4992 0.172363 21.8262 0.172363C21.1532 0.172363 20.509 0.218878 19.9261 0.552408C19.3434 0.885804 18.7428 1.49439 18.4062 2.07191L0.736206 32.4725C0.399329 33.0499 0.356498 33.7051 0.356203 34.3722C0.355907 35.0391 0.39984 35.6945 0.736206 36.2723C1.07257 36.8499 1.67337 37.2688 2.2562 37.6024C2.83903 37.9359 3.48317 38.1724 4.1562 38.1724H17.4562C22.7261 38.1724 26.5619 35.8083 29.2362 31.3324L35.6962 20.1223L39.1162 14.2324L49.5661 32.0923H35.6962L32.2762 38.1724ZM17.2662 32.0923H7.95615L21.8262 8.15235L28.8562 20.1223L24.1995 28.24C22.4236 31.1442 20.3988 32.0923 17.2662 32.0923Z" fill="white"/>
</svg>
