<svg width="64" height="44" viewBox="0 0 64 44" fill="none" xmlns="http://www.w3.org/2000/svg">
<path d="M35.84 43.5608H59.52C60.2756 43.5608 60.9989 43.2953 61.6533 42.9208C62.3078 42.5463 62.9823 42.0761 63.36 41.4273C63.7377 40.7787 64.0003 40.0427 64 39.2939C63.9997 38.5449 63.7383 37.8092 63.36 37.1609L47.36 9.64076C46.9823 8.99216 46.5209 8.52182 45.8667 8.14733C45.2124 7.77299 44.2755 7.50733 43.52 7.50733C42.7645 7.50733 42.0409 7.77299 41.3867 8.14733C40.7324 8.52182 40.2709 8.99216 39.8933 9.64076L35.84 16.6808L27.7333 3.02687C27.3553 2.37842 26.8945 1.6951 26.24 1.32076C25.5855 0.94627 24.8623 0.894043 24.1067 0.894043C23.3511 0.894043 22.6278 0.94627 21.9733 1.32076C21.3189 1.6951 20.6447 2.37842 20.2667 3.02687L0.426673 37.1609C0.0484241 37.8092 0.000333731 38.5449 1.65516e-06 39.2939C-0.00033042 40.0427 0.0489976 40.7786 0.426673 41.4273C0.804349 42.0759 1.47893 42.5463 2.13333 42.9208C2.78775 43.2953 3.51099 43.5608 4.26667 43.5608H19.2C25.1171 43.5608 29.424 40.9064 32.4267 35.8808L39.68 23.294L43.52 16.6808L55.2533 36.734H39.68L35.84 43.5608ZM18.9867 36.734H8.53328L24.1067 9.85404L32 23.294L26.7715 32.4086C24.7775 35.6694 22.504 36.734 18.9867 36.734Z" fill="#00DC82"/>
</svg>
