<svg width="64" height="58" viewBox="0 0 64 58" fill="none" xmlns="http://www.w3.org/2000/svg">
<path d="M37.7042 29.102C37.7042 32.2524 35.1503 34.8063 31.9999 34.8063C28.8494 34.8063 26.2955 32.2524 26.2955 29.102C26.2955 25.9516 28.8494 23.3976 31.9999 23.3976C35.1503 23.3976 37.7042 25.9516 37.7042 29.102Z" fill="white"/>
<path fill-rule="evenodd" clip-rule="evenodd" d="M32 7.63628C31.0648 6.72705 30.1331 5.89495 29.2125 5.14673C26.8348 3.21426 24.4722 1.79286 22.2662 1.07921C20.0604 0.365616 17.8572 0.317248 16 1.38948C14.1428 2.46172 13.0831 4.39398 12.5982 6.66105C12.1132 8.92832 12.1629 11.6851 12.6476 14.7104C12.8353 15.8818 13.09 17.1048 13.4099 18.3693C12.1549 18.7245 10.9684 19.1154 9.8601 19.5386C6.99769 20.6315 4.58544 21.9668 2.8644 23.5205C1.14352 25.0739 0 26.9578 0 29.1023C0 31.2468 1.14352 33.1307 2.8644 34.6841C4.58544 36.2377 6.99769 37.5731 9.8601 38.666C10.9684 39.0892 12.1549 39.48 13.4099 39.8353C13.09 41.0998 12.8353 42.3228 12.6476 43.4942C12.1629 46.5195 12.1132 49.2763 12.5982 51.5435C13.0831 53.8106 14.1428 55.7429 16 56.8151C17.8572 57.8873 20.0604 57.839 22.2662 57.1254C24.4722 56.4117 26.8348 54.9903 29.2125 53.0579C30.1331 52.3096 31.0648 51.4775 32 50.5683C32.9352 51.4775 33.8669 52.3096 34.7875 53.0579C37.1652 54.9903 39.5278 56.4117 41.7338 57.1254C43.9396 57.839 46.1428 57.8873 48 56.8151C49.8572 55.7429 50.9169 53.8106 51.4018 51.5435C51.8868 49.2763 51.8371 46.5195 51.3524 43.4942C51.1647 42.3228 50.91 41.0998 50.5901 39.8353C51.8451 39.48 53.0316 39.0892 54.1399 38.666C57.0023 37.5731 59.4146 36.2377 61.1356 34.6841C62.8565 33.1307 64 31.2468 64 29.1023C64 26.9578 62.8565 25.0739 61.1356 23.5205C59.4146 21.9668 57.0023 20.6315 54.1399 19.5386C53.0316 19.1154 51.8451 18.7246 50.5901 18.3693C50.91 17.1048 51.1647 15.8818 51.3524 14.7104C51.8371 11.685 51.8868 8.92831 51.4018 6.66105C50.9169 4.39398 49.8572 2.46172 48 1.38948C46.1428 0.317247 43.9396 0.365615 41.7338 1.07921C39.5278 1.79286 37.1652 3.21426 34.7875 5.14673C33.8669 5.89495 32.9352 6.72705 32 7.63628ZM46.6087 3.79929C47.5464 4.34069 48.2928 5.42917 48.6808 7.24306C49.0687 9.05675 49.058 11.4412 48.6048 14.2702C48.4306 15.3572 48.193 16.4987 47.893 17.6848C45.2605 17.089 42.3912 16.6383 39.358 16.3579C37.5985 13.8713 35.7736 11.6117 33.9413 9.6298C34.8186 8.77694 35.6883 8.00038 36.5425 7.30609C38.766 5.49903 40.8256 4.2976 42.5903 3.72672C44.3551 3.15577 45.671 3.25789 46.6087 3.79929ZM30.0587 9.6298C29.1814 8.77694 28.3117 8.00038 27.4575 7.30609C25.234 5.49903 23.1744 4.29761 21.4097 3.72672C19.6449 3.15578 18.329 3.2579 17.3913 3.79929C16.4536 4.34069 15.7072 5.42918 15.3192 7.24306C14.9313 9.05675 14.9419 11.4412 15.3952 14.2702C15.5694 15.3572 15.807 16.4987 16.107 17.6848C18.7395 17.089 21.6088 16.6383 24.642 16.3579C26.4015 13.8713 28.2264 11.6117 30.0587 9.6298ZM47.1321 20.3658C45.3348 19.9643 43.4121 19.6312 41.3895 19.3775C42.0494 20.4091 42.6961 21.472 43.3261 22.5632C43.9561 23.6544 44.5533 24.7458 45.1167 25.8332C45.9082 23.9547 46.5812 22.123 47.1321 20.3658ZM46.716 29.1023C47.9897 26.3352 49.0341 23.6251 49.8343 21.0473C51.0116 21.3806 52.1189 21.7455 53.1473 22.1382C55.824 23.1602 57.8943 24.3432 59.271 25.586C60.6479 26.8289 61.2174 28.0195 61.2174 29.1023C61.2174 30.1851 60.6479 31.3757 59.271 32.6186C57.8943 33.8614 55.824 35.0444 53.1473 36.0664C52.1189 36.4591 51.0116 36.824 49.8343 37.1573C49.0341 34.5795 47.9897 31.8694 46.716 29.1023ZM43.6403 29.1023C42.8225 27.4043 41.9137 25.682 40.9163 23.9545C39.9189 22.227 38.8818 20.5788 37.8202 19.0215C35.9407 18.8807 33.9948 18.8066 32 18.8066C30.0052 18.8066 28.0593 18.8807 26.1798 19.0215C25.1182 20.5788 24.0811 22.227 23.0837 23.9545C22.0863 25.682 21.1775 27.4042 20.3597 29.1023C21.1775 30.8003 22.0863 32.5226 23.0837 34.2501C24.0811 35.9776 25.1182 37.6258 26.1798 39.1831C28.0593 39.3239 30.0052 39.3979 32 39.3979C33.9948 39.3979 35.9407 39.3239 37.8202 39.1831C38.8818 37.6258 39.9189 35.9776 40.9163 34.2501C41.9137 32.5226 42.8225 30.8003 43.6403 29.1023ZM41.3895 38.8271C42.0494 37.7955 42.6961 36.7326 43.3261 35.6414C43.9561 34.5502 44.5533 33.4588 45.1167 32.3714C45.9082 34.2499 46.5812 36.0816 47.1321 37.8388C45.3348 38.2403 43.4121 38.5733 41.3895 38.8271ZM35.7272 42.0962C34.5038 42.152 33.26 42.1806 32 42.1806C30.74 42.1806 29.4962 42.152 28.2728 42.0962C29.5039 43.721 30.7537 45.2196 32 46.5753C33.2463 45.2196 34.4961 43.721 35.7272 42.0962ZM33.9413 48.5748C35.7736 46.5929 37.5985 44.3333 39.358 41.8467C42.3912 41.5662 45.2605 41.1156 47.893 40.5198C48.193 41.7059 48.4306 42.8474 48.6048 43.9344C49.058 46.7634 49.0687 49.1478 48.6808 50.9615C48.2928 52.7754 47.5464 53.8639 46.6087 54.4053C45.671 54.9467 44.3551 55.0488 42.5903 54.4779C40.8256 53.907 38.766 52.7056 36.5425 50.8985C35.6883 50.2042 34.8186 49.4277 33.9413 48.5748ZM30.0587 48.5748C28.2264 46.5929 26.4015 44.3333 24.642 41.8467C21.6088 41.5663 18.7395 41.1156 16.107 40.5198C15.807 41.7059 15.5694 42.8474 15.3952 43.9344C14.9419 46.7634 14.9313 49.1478 15.3192 50.9615C15.7072 52.7754 16.4536 53.8639 17.3913 54.4053C18.329 54.9467 19.6449 55.0488 21.4097 54.4779C23.1744 53.907 25.234 52.7056 27.4575 50.8985C28.3117 50.2042 29.1814 49.4277 30.0587 48.5748ZM16.8679 37.8388C18.6652 38.2403 20.5879 38.5733 22.6105 38.8271C21.9506 37.7955 21.3039 36.7326 20.6739 35.6414C20.0439 34.5502 19.4467 33.4588 18.8833 32.3714C18.0918 34.2499 17.4188 36.0816 16.8679 37.8388ZM18.8833 25.8332C19.4468 24.7458 20.0439 23.6543 20.6739 22.5632C21.3039 21.472 21.9506 20.4091 22.6105 19.3775C20.5879 19.6312 18.6652 19.9643 16.8679 20.3658C17.4188 22.123 18.0918 23.9546 18.8833 25.8332ZM17.284 29.1023C16.0103 31.8694 14.9659 34.5795 14.1657 37.1573C12.9884 36.824 11.8811 36.4591 10.8527 36.0664C8.176 35.0444 6.10571 33.8614 4.72897 32.6186C3.35209 31.3757 2.78261 30.1851 2.78261 29.1023C2.78261 28.0195 3.35209 26.8289 4.72897 25.586C6.10571 24.3432 8.176 23.1602 10.8527 22.1382C11.8811 21.7455 12.9884 21.3806 14.1657 21.0473C14.9659 23.6251 16.0103 26.3352 17.284 29.1023ZM28.2728 16.1084C29.4962 16.0526 30.74 16.024 32 16.024C33.26 16.024 34.5038 16.0526 35.7272 16.1084C34.4961 14.4836 33.2463 12.985 32 11.6293C30.7537 12.985 29.5039 14.4836 28.2728 16.1084Z" fill="white"/>
</svg>
