<svg width="167" height="104" viewBox="0 0 167 104" fill="none" xmlns="http://www.w3.org/2000/svg">
<path fill-rule="evenodd" clip-rule="evenodd" d="M0.664341 30.9471C0 32.251 0 33.9578 0 37.3714L0 66.6286C0 70.0422 0 71.7491 0.664341 73.0529C1.24871 74.1998 2.18116 75.1322 3.32806 75.7166C4.6319 76.381 6.33873 76.381 9.75238 76.381H39.0095C42.4232 76.381 44.13 76.381 45.4338 75.7166C46.5807 75.1322 47.5132 74.1998 48.0975 73.0529C48.7619 71.7491 48.7619 70.0422 48.7619 66.6286V37.3714C48.7619 33.9578 48.7619 32.251 48.0975 30.9471C47.5132 29.8002 46.5807 28.8678 45.4338 28.2834C44.13 27.6191 42.4232 27.6191 39.0095 27.6191H9.75238C6.33873 27.6191 4.6319 27.6191 3.32806 28.2834C2.18116 28.8678 1.24871 29.8002 0.664341 30.9471ZM25.9048 20L25.9048 84H22.8571L22.8571 20H25.9048ZM18.2857 50.4762H10.5585L14.4221 46.6126L12.2671 44.4576L6.87961 49.8451C5.68943 51.0352 5.68943 52.9649 6.87961 54.155L12.2671 59.5425L14.4221 57.3875L10.5584 53.5238H18.2857L18.2857 50.4762ZM30.4762 53.5238H38.2037L34.34 57.3875L36.495 59.5425L41.8825 54.155C43.0727 52.9649 43.0727 51.0352 41.8825 49.8451L36.495 44.4576L34.34 46.6126L38.2037 50.4762H30.4762L30.4762 53.5238Z" fill="url(#paint0_linear_155_1075)"/>
<path d="M67.7535 32.2606H73.2071C76.2919 32.2606 78.408 34.1978 78.408 37.0614C78.408 39.146 77.3026 40.7252 75.4812 41.399L78.7976 47H75.018L72.0806 41.8623H71.2068V47H67.7535V32.2606ZM72.8492 35.04H71.2068V39.2408H72.8492C74.1757 39.2408 74.9548 38.388 74.9548 37.1457C74.9548 35.8823 74.1757 35.04 72.8492 35.04ZM83.2253 42.4834C83.4674 43.8626 84.5413 44.7049 86.1626 44.7049C87.605 44.7049 88.6789 44.2732 89.6896 43.3783L91.1214 44.9786C89.9317 46.3051 88.363 47.2527 86.1205 47.2527C82.3515 47.2527 79.8352 44.747 79.8352 41.5464C79.8352 38.3459 82.4146 35.8402 85.8152 35.8402C89.1526 35.8402 91.5846 38.3038 91.5846 41.3674C91.5846 41.7359 91.5215 42.1676 91.4267 42.4834H83.2253ZM85.7731 38.388C84.5413 38.388 83.6043 39.125 83.2779 40.3462H88.1419C87.8787 39.146 87.0259 38.388 85.7731 38.388ZM93.062 44.947L94.2938 43.4731C95.1571 44.2732 96.0836 44.6838 97.1259 44.6838C97.9681 44.6838 98.4524 44.3469 98.4524 43.81C98.4524 43.273 98.0313 42.9361 96.7785 42.6729C94.4833 42.1886 93.2515 40.9358 93.2515 39.1144C93.2515 37.2194 94.9044 35.8402 97.2943 35.8402C99.8843 35.8402 101.327 37.3246 101.621 39.3987H98.6946C98.5682 38.7775 98.1366 38.409 97.4838 38.409C96.8837 38.409 96.4416 38.6933 96.4416 39.1565C96.4416 39.6408 96.8522 40.0198 98.0418 40.2725C100.537 40.7989 101.716 42.0097 101.716 43.831C101.716 45.7893 100 47.2527 97.3259 47.2527C95.7046 47.2527 94.2517 46.4631 93.062 44.947ZM103.707 47V36.0929H107.087V47H103.707ZM103.465 33.2397C103.465 32.1974 104.307 31.3973 105.402 31.3973C106.497 31.3973 107.339 32.1974 107.339 33.2397C107.339 34.2925 106.497 35.0821 105.402 35.0821C104.307 35.0821 103.465 34.2925 103.465 33.2397ZM109.352 47V44.4101L114.111 38.9986H109.626V36.0929H118.259V38.6828L113.49 44.0942H118.47V47H109.352ZM123.349 42.4834C123.591 43.8626 124.665 44.7049 126.287 44.7049C127.729 44.7049 128.803 44.2732 129.813 43.3783L131.245 44.9786C130.056 46.3051 128.487 47.2527 126.244 47.2527C122.475 47.2527 119.959 44.747 119.959 41.5464C119.959 38.3459 122.539 35.8402 125.939 35.8402C129.277 35.8402 131.709 38.3038 131.709 41.3674C131.709 41.7359 131.645 42.1676 131.551 42.4834H123.349ZM125.897 38.388C124.665 38.388 123.728 39.125 123.402 40.3462H128.266C128.003 39.146 127.15 38.388 125.897 38.388ZM74.1441 73H67.7641V58.2606H73.4703C76.2182 58.2606 77.9237 59.8609 77.9237 62.2508C77.9237 63.6721 77.1867 64.767 76.1024 65.2302C77.5658 65.6303 78.6712 66.9147 78.6712 68.694C78.6712 71.1997 76.8393 73 74.1441 73ZM74.6811 62.5877C74.6811 61.6086 74.0704 61.0611 73.2071 61.0611H71.1436V64.1143H73.2071C74.0704 64.1143 74.6811 63.5668 74.6811 62.5877ZM75.218 68.5045C75.218 67.4727 74.5652 66.8095 73.6388 66.8095H71.1436V70.1995H73.6388C74.5652 70.1995 75.218 69.5257 75.218 68.5045ZM80.1642 67.5464C80.1642 64.3459 82.7857 61.8402 86.2706 61.8402C89.7554 61.8402 92.3769 64.3459 92.3769 67.5464C92.3769 70.747 89.7554 73.2527 86.2706 73.2527C82.7857 73.2527 80.1642 70.747 80.1642 67.5464ZM83.5227 67.5464C83.5227 69.1046 84.7019 70.2837 86.2706 70.2837C87.8392 70.2837 89.0184 69.1046 89.0184 67.5464C89.0184 65.9988 87.8392 64.8091 86.2706 64.8091C84.7019 64.8091 83.5227 65.9988 83.5227 67.5464ZM98.3068 73.2527C95.917 73.2527 94.1798 71.5261 94.1798 68.9467V62.0929H97.5593V68.4097C97.5593 69.431 98.3384 70.2943 99.3175 70.2943C100.434 70.2943 101.328 69.4625 101.328 67.9149V62.0929H104.708V73H101.328V71.863C100.581 72.7579 99.5386 73.2527 98.3068 73.2527ZM113.84 61.8402C116.23 61.8402 117.967 63.5773 117.967 66.1567V73H114.588V66.6936C114.588 65.7145 113.809 64.8091 112.83 64.8091C111.735 64.8091 110.819 65.6092 110.819 67.1042V73H107.439V62.0929H110.819V63.2404C111.556 62.3455 112.598 61.8402 113.84 61.8402ZM119.793 67.5464C119.793 64.3459 121.92 61.8402 124.92 61.8402C126.352 61.8402 127.531 62.3876 128.384 63.2931V57.6289H131.711V73H128.384V71.7998C127.531 72.7052 126.352 73.2527 124.92 73.2527C121.92 73.2527 119.793 70.747 119.793 67.5464ZM123.152 67.5464C123.152 69.1046 124.289 70.2837 125.752 70.2837C127.226 70.2837 128.384 69.1046 128.384 67.5464C128.384 65.9988 127.226 64.8091 125.752 64.8091C124.289 64.8091 123.152 65.9988 123.152 67.5464ZM134.431 73V62.0929H137.811V73H134.431ZM134.189 59.2397C134.189 58.1974 135.031 57.3973 136.126 57.3973C137.221 57.3973 138.063 58.1974 138.063 59.2397C138.063 60.2925 137.221 61.0821 136.126 61.0821C135.031 61.0821 134.189 60.2925 134.189 59.2397ZM146.951 61.8402C149.341 61.8402 151.078 63.5773 151.078 66.1567V73H147.698V66.6936C147.698 65.7145 146.919 64.8091 145.94 64.8091C144.845 64.8091 143.929 65.6092 143.929 67.1042V73H140.55V62.0929H143.929V63.2404C144.666 62.3455 145.708 61.8402 146.951 61.8402ZM152.904 67.5464C152.904 64.3459 155.03 61.8402 158.031 61.8402C159.463 61.8402 160.642 62.3876 161.495 63.2931V62.0929H164.821V72.3051C164.821 75.7478 162.611 77.8851 158.968 77.8851C156.957 77.8851 155.241 77.1165 153.767 75.5373L155.146 73.7791C156.167 74.6529 157.241 75.1056 158.589 75.1056C160.326 75.1056 161.495 74.1581 161.495 72.5157V71.705C160.642 72.5999 159.463 73.1474 158.031 73.1474C155.03 73.1474 152.904 70.6417 152.904 67.5464ZM156.262 67.5464C156.262 69.1046 157.399 70.2837 158.863 70.2837C160.336 70.2837 161.495 69.1046 161.495 67.5464C161.495 65.9988 160.336 64.8091 158.863 64.8091C157.399 64.8091 156.262 65.9988 156.262 67.5464Z" fill="black"/>
<defs>
<linearGradient id="paint0_linear_155_1075" x1="5.57115" y1="76.3809" x2="63.8194" y2="44.1705" gradientUnits="userSpaceOnUse">
<stop stop-color="#806DFD"/>
<stop offset="1" stop-color="#624BFB"/>
</linearGradient>
</defs>
</svg>
