<svg author="Misha Grebennikov (yamogoo)" width="360" height="360" viewBox="0 0 360 360" fill="none" xmlns="http://www.w3.org/2000/svg">
<g clip-path="url(#clip0_1105_1427)">
<path d="M360 0H0V360H360V0Z" fill="#2203F6"/>
<path fill-rule="evenodd" clip-rule="evenodd" d="M-50 -10.8389C-11.2386 164.181 22.1423 328.98 134.503 323.543C246.864 318.105 280.44 205.988 447.238 282.074V-10.8389H-50Z" fill="url(#paint0_linear_1105_1427)"/>
<path fill-rule="evenodd" clip-rule="evenodd" d="M-50 -10.8389C-11.2386 164.181 22.1423 328.98 134.503 323.543C246.864 318.105 280.44 205.988 447.238 282.074V-10.8389H-50Z" fill="url(#paint1_linear_1105_1427)"/>
<path fill-rule="evenodd" clip-rule="evenodd" d="M-50 -10.8389C-11.2386 164.181 22.1423 328.98 134.503 323.543C246.864 318.105 280.44 205.988 447.238 282.074V-10.8389H-50Z" fill="url(#paint2_radial_1105_1427)"/>
<path fill-rule="evenodd" clip-rule="evenodd" d="M42 -13.8389C70.7121 115.805 95.4387 237.879 178.669 233.851C261.899 229.823 286.77 146.774 410.324 203.133V-13.8389H42Z" fill="url(#paint3_linear_1105_1427)"/>
<path fill-rule="evenodd" clip-rule="evenodd" d="M42 -13.8389C70.7121 115.805 95.4387 237.879 178.669 233.851C261.899 229.823 286.77 146.774 410.324 203.133V-13.8389H42Z" fill="url(#paint4_linear_1105_1427)"/>
<path fill-rule="evenodd" clip-rule="evenodd" d="M42 -13.8389C70.7121 115.805 95.4387 237.879 178.669 233.851C261.899 229.823 286.77 146.774 410.324 203.133V-13.8389H42Z" fill="url(#paint5_radial_1105_1427)"/>
<path fill-rule="evenodd" clip-rule="evenodd" d="M120.315 -64C142.768 37.3843 162.105 132.848 227.193 129.699C292.28 126.549 311.73 61.6023 408.352 105.677V-64H120.315Z" fill="url(#paint6_linear_1105_1427)"/>
<path fill-rule="evenodd" clip-rule="evenodd" d="M120.315 -64C142.768 37.3843 162.105 132.848 227.193 129.699C292.28 126.549 311.73 61.6023 408.352 105.677V-64H120.315Z" fill="url(#paint7_linear_1105_1427)"/>
<path fill-rule="evenodd" clip-rule="evenodd" d="M120.315 -64C142.768 37.3843 162.105 132.848 227.193 129.699C292.28 126.549 311.73 61.6023 408.352 105.677V-64H120.315Z" fill="url(#paint8_radial_1105_1427)"/>
</g>
<defs>
<linearGradient id="paint0_linear_1105_1427" x1="44.1253" y1="276.548" x2="359.085" y2="-36.8248" gradientUnits="userSpaceOnUse">
<stop stop-color="#0147FF"/>
<stop offset="1" stop-color="#2508EF"/>
</linearGradient>
<linearGradient id="paint1_linear_1105_1427" x1="44.1253" y1="276.548" x2="227.355" y2="201.961" gradientUnits="userSpaceOnUse">
<stop stop-color="#7E48FA"/>
<stop offset="0.5" stop-color="#5228F5"/>
<stop offset="1" stop-color="#2508EF" stop-opacity="0"/>
</linearGradient>
<radialGradient id="paint2_radial_1105_1427" cx="0" cy="0" r="1" gradientUnits="userSpaceOnUse" gradientTransform="translate(22.2771 220.055) rotate(-155.843) scale(528.611 528.611)">
<stop stop-color="#2508EF" stop-opacity="0"/>
<stop offset="0.56" stop-color="#5228F5"/>
<stop offset="1" stop-color="#7E48FA"/>
</radialGradient>
<linearGradient id="paint3_linear_1105_1427" x1="111.722" y1="199.041" x2="345.026" y2="-33.0877" gradientUnits="userSpaceOnUse">
<stop stop-color="#0147FF"/>
<stop offset="1" stop-color="#2508EF"/>
</linearGradient>
<linearGradient id="paint4_linear_1105_1427" x1="111.722" y1="199.041" x2="247.448" y2="143.791" gradientUnits="userSpaceOnUse">
<stop stop-color="#7E48FA"/>
<stop offset="0.5" stop-color="#5228F5"/>
<stop offset="1" stop-color="#2508EF" stop-opacity="0"/>
</linearGradient>
<radialGradient id="paint5_radial_1105_1427" cx="0" cy="0" r="1" gradientUnits="userSpaceOnUse" gradientTransform="translate(95.5386 157.193) rotate(-155.843) scale(391.564 391.564)">
<stop stop-color="#2508EF" stop-opacity="0"/>
<stop offset="0.56" stop-color="#5228F5"/>
<stop offset="1" stop-color="#7E48FA"/>
</radialGradient>
<linearGradient id="paint6_linear_1105_1427" x1="174.839" y1="102.476" x2="357.287" y2="-79.053" gradientUnits="userSpaceOnUse">
<stop stop-color="#0147FF"/>
<stop offset="1" stop-color="#2508EF"/>
</linearGradient>
<linearGradient id="paint7_linear_1105_1427" x1="174.839" y1="102.476" x2="280.979" y2="59.2696" gradientUnits="userSpaceOnUse">
<stop stop-color="#7E48FA"/>
<stop offset="0.5" stop-color="#5228F5"/>
<stop offset="1" stop-color="#2508EF" stop-opacity="0"/>
</linearGradient>
<radialGradient id="paint8_radial_1105_1427" cx="0" cy="0" r="1" gradientUnits="userSpaceOnUse" gradientTransform="translate(162.183 69.7507) rotate(-155.843) scale(306.211 306.211)">
<stop stop-color="#2508EF" stop-opacity="0"/>
<stop offset="0.56" stop-color="#5228F5"/>
<stop offset="1" stop-color="#7E48FA"/>
</radialGradient>
<clipPath id="clip0_1105_1427">
<rect width="360" height="360" fill="white"/>
</clipPath>
</defs>
</svg>
