<svg width="64" height="64" viewBox="0 0 64 64" fill="none" xmlns="http://www.w3.org/2000/svg">
<path fill-rule="evenodd" clip-rule="evenodd" d="M1.12207 4.36808C0.250122 6.07937 0.250122 8.31958 0.250122 12.8V51.2C0.250122 55.6804 0.250122 57.9206 1.12207 59.6319C1.88906 61.1372 3.1129 62.3611 4.6182 63.1281C6.32949 64 8.5697 64 13.0501 64H51.4501C55.9305 64 58.1708 64 59.882 63.1281C61.3873 62.3611 62.6112 61.1372 63.3782 59.6319C64.2501 57.9206 64.2501 55.6804 64.2501 51.2V12.8C64.2501 8.31958 64.2501 6.07937 63.3782 4.36808C62.6112 2.86278 61.3873 1.63893 59.882 0.871948C58.1708 0 55.9305 0 51.4501 0H13.0501C8.5697 0 6.32949 0 4.6182 0.871948C3.1129 1.63893 1.88906 2.86278 1.12207 4.36808ZM35.2501 12L35.2501 52H29.2501L29.2501 12H35.2501ZM26.2501 30H16.1081L21.1791 24.929L18.3507 22.1006L11.2796 29.1716C9.71751 30.7337 9.71751 33.2664 11.2796 34.8285L18.3507 41.8995L21.1791 39.0711L16.108 34H26.2501L26.2501 30ZM38.2501 34H48.3925L43.3214 39.0711L46.1498 41.8995L53.2209 34.8285C54.783 33.2664 54.783 30.7337 53.2209 29.1716L46.1498 22.1006L43.3214 24.929L48.3924 30H38.2501L38.2501 34Z" fill="#A765FC"/>
</svg>
