<svg width="65" height="84" viewBox="0 0 65 84" fill="none" xmlns="http://www.w3.org/2000/svg">
<path fill-rule="evenodd" clip-rule="evenodd" d="M1.42999 14.3681C0.558044 16.0794 0.558044 18.3196 0.558044 22.8L0.558044 61.2C0.558044 65.6804 0.558044 67.9207 1.42999 69.6319C2.19698 71.1372 3.42082 72.3611 4.92612 73.1281C6.63741 74 8.87762 74 13.358 74H51.758C56.2385 74 58.4787 74 60.19 73.1281C61.6953 72.3611 62.9191 71.1372 63.6861 69.6319C64.558 67.9207 64.558 65.6804 64.558 61.2V22.8C64.558 18.3196 64.558 16.0794 63.6861 14.3681C62.9191 12.8628 61.6953 11.639 60.19 10.872C58.4787 10 56.2385 10 51.758 10L13.358 10C8.87762 10 6.63741 10 4.92612 10.872C3.42082 11.639 2.19698 12.8628 1.42999 14.3681ZM34.558 0L34.558 84H30.558L30.558 0L34.558 0ZM24.558 40H14.416L19.4871 34.929L16.6586 32.1006L9.58753 39.1716C8.02543 40.7337 8.02543 43.2664 9.58753 44.8285L16.6586 51.8995L19.4871 49.0711L14.4159 44H24.558L24.558 40ZM40.558 44H50.7005L45.6293 49.0711L48.4578 51.8995L55.5289 44.8285C57.091 43.2664 57.091 40.7337 55.5289 39.1716L48.4578 32.1006L45.6293 34.929L50.7004 40H40.558L40.558 44Z" fill="url(#paint0_linear_1190_2341)"/>
<defs>
<linearGradient id="paint0_linear_1190_2341" x1="7.87017" y1="74" x2="84.3211" y2="31.7238" gradientUnits="userSpaceOnUse">
<stop stop-color="#9E8FFF"/>
<stop offset="0.9999" stop-color="#7662FB"/>
</linearGradient>
</defs>
</svg>
