<svg width="17" height="17" viewBox="0 0 17 17" fill="none" xmlns="http://www.w3.org/2000/svg">
<path fill-rule="evenodd" clip-rule="evenodd" d="M0.718048 1.23472C0.500061 1.66254 0.500061 2.2226 0.500061 3.3427V12.9427C0.500061 14.0628 0.500061 14.6229 0.718048 15.0507C0.909795 15.427 1.21576 15.733 1.59208 15.9247C2.0199 16.1427 2.57996 16.1427 3.70006 16.1427H13.3001C14.4202 16.1427 14.9802 16.1427 15.408 15.9247C15.7844 15.733 16.0903 15.427 16.2821 15.0507C16.5001 14.6229 16.5001 14.0628 16.5001 12.9427V3.3427C16.5001 2.2226 16.5001 1.66254 16.2821 1.23472C16.0903 0.858395 15.7844 0.552434 15.408 0.360687C14.9802 0.1427 14.4202 0.1427 13.3001 0.1427H3.70006C2.57996 0.1427 2.0199 0.1427 1.59208 0.360687C1.21576 0.552434 0.909795 0.858395 0.718048 1.23472ZM9.25006 3.1427L9.25006 13.1427H7.75006L7.75006 3.1427H9.25006ZM7.00006 7.6427H4.46456L5.73232 6.37495L5.02521 5.66785L3.25743 7.43561C2.86691 7.82613 2.86691 8.45929 3.25743 8.84982L5.02521 10.6176L5.73232 9.91047L4.46453 8.6427H7.00006L7.00006 7.6427ZM10.0001 8.6427H12.5357L11.2679 9.91047L11.975 10.6176L13.7428 8.84982C14.1333 8.45929 14.1333 7.82613 13.7428 7.43561L11.975 5.66785L11.2679 6.37495L12.5356 7.6427H10.0001L10.0001 8.6427Z" fill="#A765FC"/>
</svg>
