<svg width="360" height="360" viewBox="0 0 360 360" fill="none" xmlns="http://www.w3.org/2000/svg">
<g clip-path="url(#clip0_1109_1443)">
<path d="M360 0H0V360H360V0Z" fill="url(#paint0_linear_1109_1443)"/>
<path fill-rule="evenodd" clip-rule="evenodd" d="M-21 -76.8389C17.7614 98.1807 51.1423 262.98 163.503 257.543C275.864 252.105 309.44 139.988 476.238 216.074V-76.8389H-21Z" fill="url(#paint1_linear_1109_1443)"/>
<path fill-rule="evenodd" clip-rule="evenodd" d="M-21 -76.8389C17.7614 98.1807 51.1423 262.98 163.503 257.543C275.864 252.105 309.44 139.988 476.238 216.074V-76.8389H-21Z" fill="url(#paint2_linear_1109_1443)"/>
<path fill-rule="evenodd" clip-rule="evenodd" d="M-21 -76.8389C17.7614 98.1807 51.1423 262.98 163.503 257.543C275.864 252.105 309.44 139.988 476.238 216.074V-76.8389H-21Z" fill="url(#paint3_radial_1109_1443)"/>
<path fill-rule="evenodd" clip-rule="evenodd" d="M71 -79.8389C99.7121 49.8052 124.439 171.879 207.669 167.851C290.899 163.823 315.77 80.7737 439.324 137.133V-79.8389H71Z" fill="url(#paint4_linear_1109_1443)"/>
<path fill-rule="evenodd" clip-rule="evenodd" d="M71 -79.8389C99.7121 49.8052 124.439 171.879 207.669 167.851C290.899 163.823 315.77 80.7737 439.324 137.133V-79.8389H71Z" fill="url(#paint5_linear_1109_1443)"/>
<path fill-rule="evenodd" clip-rule="evenodd" d="M71 -79.8389C99.7121 49.8052 124.439 171.879 207.669 167.851C290.899 163.823 315.77 80.7737 439.324 137.133V-79.8389H71Z" fill="url(#paint6_radial_1109_1443)"/>
<path fill-rule="evenodd" clip-rule="evenodd" d="M149.315 -130C171.768 -28.6157 191.105 66.8484 256.193 63.6986C321.28 60.5486 340.73 -4.39775 437.352 39.6766V-130H149.315Z" fill="url(#paint7_linear_1109_1443)"/>
<path fill-rule="evenodd" clip-rule="evenodd" d="M149.315 -130C171.768 -28.6157 191.105 66.8484 256.193 63.6986C321.28 60.5486 340.73 -4.39775 437.352 39.6766V-130H149.315Z" fill="url(#paint8_linear_1109_1443)"/>
<path fill-rule="evenodd" clip-rule="evenodd" d="M149.315 -130C171.768 -28.6157 191.105 66.8484 256.193 63.6986C321.28 60.5486 340.73 -4.39775 437.352 39.6766V-130H149.315Z" fill="url(#paint9_radial_1109_1443)"/>
</g>
<defs>
<linearGradient id="paint0_linear_1109_1443" x1="360" y1="16.9302" x2="105.399" y2="325.874" gradientUnits="userSpaceOnUse">
<stop stop-color="#2203F6"/>
<stop offset="1" stop-color="#9D8FFF"/>
</linearGradient>
<linearGradient id="paint1_linear_1109_1443" x1="73.1253" y1="210.548" x2="388.085" y2="-102.825" gradientUnits="userSpaceOnUse">
<stop stop-color="#0147FF"/>
<stop offset="1" stop-color="#2508EF"/>
</linearGradient>
<linearGradient id="paint2_linear_1109_1443" x1="73.1253" y1="210.548" x2="256.355" y2="135.961" gradientUnits="userSpaceOnUse">
<stop stop-color="#7E48FA"/>
<stop offset="0.5" stop-color="#5228F5"/>
<stop offset="1" stop-color="#2508EF" stop-opacity="0"/>
</linearGradient>
<radialGradient id="paint3_radial_1109_1443" cx="0" cy="0" r="1" gradientUnits="userSpaceOnUse" gradientTransform="translate(51.2771 154.055) rotate(-155.843) scale(528.611 528.611)">
<stop stop-color="#2508EF" stop-opacity="0"/>
<stop offset="0.56" stop-color="#5228F5"/>
<stop offset="1" stop-color="#7E48FA"/>
</radialGradient>
<linearGradient id="paint4_linear_1109_1443" x1="140.722" y1="133.041" x2="374.026" y2="-99.0877" gradientUnits="userSpaceOnUse">
<stop stop-color="#0147FF"/>
<stop offset="1" stop-color="#2508EF"/>
</linearGradient>
<linearGradient id="paint5_linear_1109_1443" x1="140.722" y1="133.041" x2="276.448" y2="77.7909" gradientUnits="userSpaceOnUse">
<stop stop-color="#7E48FA"/>
<stop offset="0.5" stop-color="#5228F5"/>
<stop offset="1" stop-color="#2508EF" stop-opacity="0"/>
</linearGradient>
<radialGradient id="paint6_radial_1109_1443" cx="0" cy="0" r="1" gradientUnits="userSpaceOnUse" gradientTransform="translate(124.539 91.1934) rotate(-155.843) scale(391.564 391.564)">
<stop stop-color="#2508EF" stop-opacity="0"/>
<stop offset="0.56" stop-color="#5228F5"/>
<stop offset="1" stop-color="#7E48FA"/>
</radialGradient>
<linearGradient id="paint7_linear_1109_1443" x1="203.839" y1="36.476" x2="386.287" y2="-145.053" gradientUnits="userSpaceOnUse">
<stop stop-color="#0147FF"/>
<stop offset="1" stop-color="#2508EF"/>
</linearGradient>
<linearGradient id="paint8_linear_1109_1443" x1="203.839" y1="36.476" x2="309.979" y2="-6.73037" gradientUnits="userSpaceOnUse">
<stop stop-color="#7E48FA"/>
<stop offset="0.5" stop-color="#5228F5"/>
<stop offset="1" stop-color="#2508EF" stop-opacity="0"/>
</linearGradient>
<radialGradient id="paint9_radial_1109_1443" cx="0" cy="0" r="1" gradientUnits="userSpaceOnUse" gradientTransform="translate(191.183 3.75065) rotate(-155.843) scale(306.211 306.211)">
<stop stop-color="#2508EF" stop-opacity="0"/>
<stop offset="0.56" stop-color="#5228F5"/>
<stop offset="1" stop-color="#7E48FA"/>
</radialGradient>
<clipPath id="clip0_1109_1443">
<rect width="360" height="360" fill="white"/>
</clipPath>
</defs>
</svg>
