<svg width="65" height="84" viewBox="0 0 65 84" fill="none" xmlns="http://www.w3.org/2000/svg">
<path fill-rule="evenodd" clip-rule="evenodd" d="M1.09991 14.3681C0.227966 16.0794 0.227966 18.3196 0.227966 22.8L0.227966 61.2C0.227966 65.6804 0.227966 67.9207 1.09991 69.6319C1.8669 71.1372 3.09075 72.3611 4.59604 73.1281C6.30734 74 8.54755 74 13.028 74H51.428C55.9084 74 58.1486 74 59.8599 73.1281C61.3652 72.3611 62.589 71.1372 63.356 69.6319C64.228 67.9207 64.228 65.6804 64.228 61.2V22.8C64.228 18.3196 64.228 16.0794 63.356 14.3681C62.589 12.8628 61.3652 11.639 59.8599 10.872C58.1486 10 55.9084 10 51.428 10L13.028 10C8.54755 10 6.30734 10 4.59604 10.872C3.09075 11.639 1.8669 12.8628 1.09991 14.3681ZM34.228 0L34.228 84H30.228L30.228 0L34.228 0ZM24.228 40H14.0859L19.157 34.929L16.3285 32.1006L9.25746 39.1716C7.69535 40.7337 7.69535 43.2664 9.25746 44.8285L16.3285 51.8995L19.157 49.0711L14.0859 44H24.228L24.228 40ZM40.228 44H50.3704L45.2993 49.0711L48.1277 51.8995L55.1988 44.8285C56.7609 43.2664 56.7609 40.7337 55.1988 39.1716L48.1277 32.1006L45.2993 34.929L50.3703 40H40.228L40.228 44Z" fill="url(#paint0_linear_1334_6001)"/>
<defs>
<linearGradient id="paint0_linear_1334_6001" x1="7.5401" y1="74" x2="83.991" y2="31.7238" gradientUnits="userSpaceOnUse">
<stop stop-color="#806DFD"/>
<stop offset="1" stop-color="#624BFB"/>
</linearGradient>
</defs>
</svg>
