<svg width="21" height="27" viewBox="0 0 21 27" fill="none" xmlns="http://www.w3.org/2000/svg">
<path fill-rule="evenodd" clip-rule="evenodd" d="M0.0852051 5.51829C0.0852051 3.79505 0.0852051 2.93343 0.42057 2.27524C0.715565 1.69628 1.18627 1.22557 1.76523 0.930579C2.42342 0.595215 3.28504 0.595215 5.00828 0.595215H10.3537C11.1063 0.595215 11.4826 0.595215 11.8367 0.68023C12.1506 0.755605 12.4508 0.879926 12.7261 1.04863C13.0366 1.23891 13.3027 1.50499 13.8348 2.03715L18.6433 6.84559C19.1754 7.37775 19.4415 7.64383 19.6318 7.95434C19.8005 8.22964 19.9248 8.52978 20.0002 8.84373C20.0852 9.19785 20.0852 9.57414 20.0852 10.3267V21.826C20.0852 23.5492 20.0852 24.4108 19.7498 25.069C19.4548 25.648 18.9841 26.1187 18.4052 26.4137C17.747 26.7491 16.8854 26.7491 15.1621 26.7491H5.00828C3.28504 26.7491 2.42342 26.7491 1.76523 26.4137C1.18627 26.1187 0.715565 25.648 0.42057 25.069C0.0852051 24.4108 0.0852051 23.5492 0.0852051 21.826V5.51829ZM17.0578 25.1738C16.6219 25.2094 16.0491 25.2106 15.1621 25.2106H5.00828C4.12128 25.2106 3.54855 25.2094 3.11264 25.1738C2.6947 25.1396 2.53975 25.0817 2.46368 25.0429C2.1742 24.8954 1.93885 24.6601 1.79135 24.3706C1.75259 24.2945 1.69463 24.1396 1.66048 23.7216C1.62486 23.2857 1.62367 22.713 1.62367 21.826V5.51829C1.62367 4.63129 1.62486 4.05856 1.66048 3.62265C1.69463 3.20471 1.75259 3.04976 1.79135 2.97369C1.93885 2.68421 2.1742 2.44886 2.46368 2.30136C2.53975 2.2626 2.6947 2.20463 3.11264 2.17049C3.54855 2.13487 4.12128 2.13368 5.00828 2.13368H10.0852V10.5952H18.5467V21.826C18.5467 22.713 18.5455 23.2857 18.5099 23.7216C18.4758 24.1396 18.4178 24.2945 18.3791 24.3706C18.2316 24.6601 17.9962 24.8954 17.7067 25.0429C17.6307 25.0817 17.4757 25.1396 17.0578 25.1738ZM18.4614 9.05675C18.4252 8.95258 18.3778 8.85247 18.32 8.75818C18.247 8.63904 18.1394 8.51738 17.5554 7.93345L12.747 3.12501C12.163 2.54107 12.0414 2.4334 11.9222 2.36038C11.828 2.3026 11.7278 2.25524 11.6237 2.21902V9.05675H18.4614Z" fill="#BABABA"/>
</svg>
