<svg width="23" height="33" viewBox="0 0 23 33" fill="none" xmlns="http://www.w3.org/2000/svg">
<g clip-path="url(#clip0_1126_2315)">
<path d="M11.5853 16.6722C11.5853 15.2577 12.1472 13.9012 13.1474 12.901C14.1476 11.9008 15.5042 11.3389 16.9187 11.3389C18.3331 11.3389 19.6897 11.9008 20.6899 12.901C21.6901 13.9012 22.252 15.2577 22.252 16.6722C22.252 18.0867 21.6901 19.4432 20.6899 20.4434C19.6897 21.4436 18.3331 22.0055 16.9187 22.0055C15.5042 22.0055 14.1476 21.4436 13.1474 20.4434C12.1472 19.4432 11.5853 18.0867 11.5853 16.6722Z" fill="#1ABCFE"/>
<path d="M0.918701 27.3389C0.918701 25.9245 1.4806 24.5679 2.4808 23.5677C3.48099 22.5675 4.83755 22.0056 6.25203 22.0056H11.5854V27.3389C11.5854 28.7534 11.0235 30.11 10.0233 31.1102C9.02308 32.1104 7.66652 32.6723 6.25203 32.6723C4.83755 32.6723 3.48099 32.1104 2.4808 31.1102C1.4806 30.11 0.918701 28.7534 0.918701 27.3389H0.918701Z" fill="#0ACF83"/>
<path d="M11.5853 0.672363V11.339H16.9187C18.3331 11.339 19.6897 10.7771 20.6899 9.77693C21.6901 8.77674 22.252 7.42018 22.252 6.0057C22.252 4.59121 21.6901 3.23465 20.6899 2.23446C19.6897 1.23427 18.3331 0.672363 16.9187 0.672363L11.5853 0.672363Z" fill="#FF7262"/>
<path d="M0.918579 6.0057C0.918579 7.42018 1.48048 8.77674 2.48068 9.77693C3.48087 10.7771 4.83742 11.339 6.25191 11.339H11.5852V0.672363H6.25191C4.83742 0.672363 3.48087 1.23427 2.48068 2.23446C1.48048 3.23465 0.918579 4.59121 0.918579 6.0057H0.918579Z" fill="#F24E1E"/>
<path d="M0.918701 16.6722C0.918701 18.0867 1.4806 19.4432 2.4808 20.4434C3.48099 21.4436 4.83755 22.0055 6.25203 22.0055H11.5854V11.3389H6.25203C4.83755 11.3389 3.48099 11.9008 2.4808 12.901C1.4806 13.9012 0.918701 15.2577 0.918701 16.6722H0.918701Z" fill="#A259FF"/>
</g>
<defs>
<clipPath id="clip0_1126_2315">
<rect width="21.3333" height="32" fill="white" transform="translate(0.918579 0.672363)"/>
</clipPath>
</defs>
</svg>
