<svg width="32" height="32" viewBox="0 0 32 32" fill="none" xmlns="http://www.w3.org/2000/svg">
<path d="M31.2997 14.7865L17.713 1.20076C17.527 1.01452 17.3061 0.866778 17.063 0.765973C16.8199 0.665168 16.5593 0.613281 16.2961 0.613281C16.0329 0.613281 15.7722 0.665168 15.5291 0.765973C15.286 0.866778 15.0651 1.01452 14.8791 1.20076L12.0575 4.02242L15.6357 7.60063C16.0564 7.45776 16.5086 7.43546 16.9413 7.53624C17.374 7.63702 17.7699 7.85687 18.0841 8.17092C18.4001 8.4873 18.6207 8.88611 18.7209 9.32185C18.8211 9.75759 18.7967 10.2127 18.6507 10.6353L22.0992 14.0841C22.5217 13.9373 22.9771 13.9125 23.413 14.0127C23.849 14.1129 24.2479 14.3339 24.5639 14.6504C24.7854 14.8718 24.961 15.1346 25.0809 15.4239C25.2007 15.7132 25.2624 16.0232 25.2624 16.3364C25.2624 16.6495 25.2007 16.9595 25.0809 17.2488C24.961 17.5381 24.7854 17.801 24.5639 18.0223C24.1165 18.4695 23.5098 18.7208 22.8773 18.7208C22.2447 18.7208 21.638 18.4695 21.1906 18.0223C20.8576 17.6895 20.6306 17.2656 20.5383 16.8039C20.4459 16.3422 20.4924 15.8635 20.6718 15.4283L17.4546 12.2121V20.6774C17.7942 20.8451 18.0889 21.0914 18.3143 21.3957C18.5398 21.7 18.6895 22.0537 18.7511 22.4274C18.8127 22.8011 18.7843 23.1841 18.6684 23.5446C18.5525 23.9052 18.3523 24.233 18.0845 24.5008C17.8631 24.7222 17.6002 24.8979 17.311 25.0177C17.0217 25.1375 16.7116 25.1992 16.3985 25.1992C16.0854 25.1992 15.7753 25.1375 15.486 25.0177C15.1967 24.8979 14.9339 24.7222 14.7125 24.5008C14.491 24.2794 14.3153 24.0165 14.1955 23.7272C14.0756 23.4379 14.0139 23.1278 14.0139 22.8146C14.0139 22.5015 14.0756 22.1914 14.1955 21.902C14.3153 21.6127 14.491 21.3499 14.7125 21.1285C14.9359 20.9046 15.2016 20.7274 15.4941 20.6073V12.0641C15.2015 11.9446 14.9358 11.7679 14.7125 11.5442C14.3781 11.2094 14.1508 10.7828 14.0594 10.3185C13.968 9.85419 14.0166 9.37321 14.1991 8.93662L10.671 5.40853L1.35535 14.7228C1.16917 14.909 1.02147 15.1299 0.9207 15.3731C0.819932 15.6163 0.768066 15.877 0.768066 16.1403C0.768066 16.4035 0.819932 16.6642 0.9207 16.9074C1.02147 17.1506 1.16917 17.3716 1.35535 17.5577L14.9425 31.1452C15.3184 31.5207 15.828 31.7317 16.3594 31.7317C16.8908 31.7317 17.4004 31.5207 17.7763 31.1452L31.2997 17.6214C31.6752 17.2452 31.8861 16.7354 31.8861 16.2039C31.8861 15.6725 31.6752 15.1627 31.2997 14.7865Z" fill="#100F0D"/>
</svg>
