<svg width="32" height="46" viewBox="0 0 32 46" fill="none" xmlns="http://www.w3.org/2000/svg">
<path d="M15.375 22.6648V25.3219C15.375 25.7361 15.7108 26.0719 16.125 26.0719C16.5392 26.0719 16.875 25.7361 16.875 25.3219V22.6648C18.1567 22.3323 19.1031 21.1676 19.1031 19.7819V13.5259C19.1031 12.1402 18.1567 10.9756 16.875 10.6431V4.02222C23.3603 4.40991 28.5 9.79217 28.5 16.3749V30.1249C28.5 36.9594 22.9595 42.4999 16.125 42.4999C9.29048 42.4999 3.75 36.9594 3.75 30.1249V16.3749C3.75 9.79217 8.8897 4.40991 15.375 4.02222V10.6431C14.0933 10.9756 13.1469 12.1402 13.1469 13.5259V19.7819C13.1469 21.1676 14.0933 22.3323 15.375 22.6648Z" fill="white"/>
<path fill-rule="evenodd" clip-rule="evenodd" d="M16.125 0.5C7.35748 0.5 0.25 7.60748 0.25 16.375V30.125C0.25 38.8925 7.35748 46 16.125 46C24.8925 46 32 38.8925 32 30.125V16.375C32 7.60748 24.8925 0.5 16.125 0.5ZM1.75 16.375C1.75 8.43591 8.18591 2 16.125 2C24.0641 2 30.5 8.43591 30.5 16.375V30.125C30.5 38.0641 24.0641 44.5 16.125 44.5C8.18591 44.5 1.75 38.0641 1.75 30.125V16.375Z" fill="white"/>
</svg>
