<svg width="31" height="49" viewBox="0 0 31 49" fill="none" xmlns="http://www.w3.org/2000/svg">
<path d="M6.965 14.3328V19.8833C3.64062 18.1463 1.37158 14.6657 1.37158 10.6551C1.37158 4.90854 6.03012 0.25 11.7767 0.25C17.5233 0.25 22.1819 4.90854 22.1819 10.6551C22.1819 14.3429 20.2634 17.5825 17.3701 19.4305V14.3328C17.3701 11.4595 15.0409 9.13022 12.1676 9.13022C9.29427 9.13022 6.965 11.4595 6.965 14.3328Z" fill="white"/>
<path fill-rule="evenodd" clip-rule="evenodd" d="M8.48269 14.3711C8.48269 12.315 10.1495 10.6482 12.2056 10.6482C14.2617 10.6482 15.9285 12.315 15.9285 14.3711V20.7115C16.4018 20.4556 16.9438 20.3101 17.5201 20.3101C19.1307 20.3101 20.4759 21.4462 20.798 22.9607C21.2796 22.6927 21.8344 22.5398 22.4251 22.5398C24.0072 22.5398 25.3332 23.636 25.685 25.1103C26.0986 24.8927 26.5698 24.7694 27.0701 24.7694C28.7157 24.7694 30.0497 26.1035 30.0497 27.7491V37.6613C30.0497 37.7523 30.0456 37.8425 30.0376 37.9318C29.7621 43.886 24.8482 48.6282 18.8264 48.6282C14.6568 48.6282 11.0193 46.3542 9.08488 42.9822L1.24917 31.2539C0.106948 29.5443 0.566936 27.2324 2.27658 26.0902C3.98622 24.948 6.29811 25.408 7.44033 27.1176L8.48269 28.6778V14.3711ZM12.2056 12.1482C10.9779 12.1482 9.98269 13.1434 9.98269 14.3711V33.6231L6.19308 27.9509C5.51108 26.9301 4.13068 26.6554 3.10987 27.3374C2.08906 28.0194 1.81441 29.3998 2.49641 30.4206L10.3613 42.1926L10.3744 42.2156C12.0494 45.1516 15.2075 47.1282 18.8264 47.1282C24.0485 47.1282 28.3094 43.0112 28.5399 37.8464L28.5408 37.8268L28.5427 37.8072C28.5473 37.7594 28.5497 37.7107 28.5497 37.6613V27.7491C28.5497 26.9319 27.8873 26.2694 27.0701 26.2694C26.5145 26.2694 26.0291 26.5757 25.7759 27.0309V29.0091H24.2759V26.3752L24.2764 25.8911C24.2764 24.8686 23.4475 24.0398 22.4251 24.0398C21.7761 24.0398 21.204 24.3736 20.8729 24.8815V26.9479H19.3729V24.6821L19.3714 24.6818V23.6614C19.3714 22.639 18.5425 21.8101 17.5201 21.8101C16.845 21.8101 16.2531 22.1714 15.9293 22.7138V27.4198H14.4293L14.4285 14.3711C14.4285 13.1434 13.4333 12.1482 12.2056 12.1482Z" fill="white"/>
</svg>
